<svg width="193" height="37" viewBox="0 0 193 37" fill="none" xmlns="http://www.w3.org/2000/svg">
<path d="M37 18.5C37 13.5935 35.0509 8.88795 31.5815 5.41852C28.112 1.9491 23.4065 0 18.5 0C13.5935 0 8.88795 1.9491 5.41853 5.41852C1.94911 8.88795 7.77378e-06 13.5935 7.77378e-06 18.5C-0.00168818 20.35 0.274122 22.1898 0.818235 23.958L14.9734 11.6709L15.4745 10.5196L14.134 7.43277L17.2209 8.77323L20.3077 7.43277L18.9673 10.5196L20.3077 13.6065L17.2209 12.266L16.0665 12.7671L2.71369 28.1496C3.07172 28.7347 3.46206 29.2994 3.88289 29.841L24.0479 11.7438L24.365 11.0112L23.0277 7.92434L26.1156 9.2648L27.4677 8.67808L27.5787 8.57871L27.6136 8.61466L29.1993 7.92434L28.509 9.51006L28.545 9.546L28.4456 9.65171L27.8589 11.0038L29.1993 14.0907L26.1125 12.7502L25.3799 13.0673L7.30275 33.2154C7.80156 33.5958 8.31953 33.9504 8.85463 34.2779L24.235 20.9325L24.7361 19.7791L23.3956 16.6923L26.4825 18.0327L29.5693 16.6923L28.2289 19.7791L29.5693 22.866L26.4825 21.5255L25.3291 22.0266L13.042 36.1818C14.8102 36.7259 16.65 37.0017 18.5 37C23.4065 37 28.112 35.0509 31.5815 31.5815C35.0509 28.112 37 23.4065 37 18.5V18.5Z" fill="#00A3FF"/>
<path d="M53.4531 9.7207C53.4531 10.4824 53.1543 11.0723 52.5566 11.4902C51.9629 11.9082 51.125 12.1172 50.043 12.1172C48.0312 12.1172 46.8652 11.418 46.5449 10.0195L47.6289 9.80273C47.7539 10.2988 48.0195 10.6641 48.4258 10.8984C48.832 11.1289 49.3848 11.2441 50.084 11.2441C50.8066 11.2441 51.3633 11.1211 51.7539 10.875C52.1484 10.625 52.3457 10.2598 52.3457 9.7793C52.3457 9.50977 52.2832 9.29102 52.1582 9.12305C52.0371 8.95508 51.8652 8.81641 51.6426 8.70703C51.4199 8.59766 51.1543 8.50586 50.8457 8.43164C50.5371 8.35742 50.1953 8.27734 49.8203 8.19141C49.3867 8.09375 49.0234 7.99805 48.7305 7.9043C48.4414 7.81055 48.2031 7.71289 48.0156 7.61133C47.8281 7.50586 47.668 7.39453 47.5352 7.27734C47.3398 7.09766 47.1895 6.88867 47.084 6.65039C46.9824 6.41211 46.9316 6.13867 46.9316 5.83008C46.9316 5.12305 47.2012 4.57812 47.7402 4.19531C48.2832 3.8125 49.0586 3.62109 50.0664 3.62109C51.0039 3.62109 51.7207 3.76562 52.2168 4.05469C52.7129 4.33984 53.0605 4.82812 53.2598 5.51953L52.1582 5.71289C52.0371 5.27539 51.8066 4.95898 51.4668 4.76367C51.127 4.56445 50.6562 4.46484 50.0547 4.46484C49.3945 4.46484 48.8906 4.57422 48.543 4.79297C48.1953 5.01172 48.0215 5.33789 48.0215 5.77148C48.0215 6.02539 48.0879 6.23633 48.2207 6.4043C48.3574 6.56836 48.5527 6.70703 48.8066 6.82031C49.0449 6.93359 49.5508 7.07617 50.3242 7.24805C50.6406 7.32227 50.9531 7.40039 51.2617 7.48242C51.5703 7.56055 51.8613 7.66016 52.1348 7.78125C52.2949 7.84766 52.4473 7.92969 52.5918 8.02734C52.7402 8.12109 52.8691 8.23047 52.9785 8.35547C53.127 8.51953 53.2422 8.71289 53.3242 8.93555C53.4102 9.1582 53.4531 9.41992 53.4531 9.7207Z" fill="#9EA3AF"/>
<path d="M58.6914 11.1973C59.8477 11.1973 60.7168 10.625 61.2988 9.48047L62.2129 9.9375C61.873 10.6484 61.3945 11.1895 60.7773 11.5605C60.1641 11.9316 59.4512 12.1172 58.6387 12.1172C57.8027 12.1172 57.084 11.9434 56.4824 11.5957C55.8809 11.248 55.418 10.7539 55.0938 10.1133C54.7734 9.46875 54.6133 8.70898 54.6133 7.83398C54.6133 6.95508 54.7734 6.20117 55.0938 5.57227C55.4141 4.94336 55.875 4.46094 56.4766 4.125C57.0781 3.78906 57.7969 3.62109 58.6328 3.62109C59.5117 3.62109 60.2461 3.79297 60.8359 4.13672C61.4258 4.48047 61.8594 4.99023 62.1367 5.66602L61.0762 6.01758C60.8848 5.53711 60.5762 5.16992 60.1504 4.91602C59.7285 4.66211 59.2266 4.53516 58.6445 4.53516C57.7305 4.53516 57.0195 4.83008 56.5117 5.41992C56.0039 6.00586 55.75 6.81055 55.75 7.83398C55.75 8.50586 55.8691 9.0957 56.1074 9.60352C56.3496 10.1074 56.6895 10.5 57.127 10.7812C57.5684 11.0586 58.0898 11.1973 58.6914 11.1973Z" fill="#9EA3AF"/>
<path d="M64.9023 3.74414V12H63.7832V3.74414H64.9023Z" fill="#9EA3AF"/>
<path d="M73.5039 11.0859V12H67V3.74414H73.2637V4.6582H68.1191V7.30664H72.9121V8.20898H68.1191V11.0859H73.5039Z" fill="#9EA3AF"/>
<path d="M76 6.51562V12H75.0039V3.74414H76.3047L80.7695 10.8223C80.7227 10.0527 80.6992 9.49805 80.6992 9.1582V3.74414H81.707V12H80.3594L75.9414 4.96875C75.9492 5.22656 75.9609 5.48438 75.9766 5.74219C75.9922 6 76 6.25781 76 6.51562Z" fill="#9EA3AF"/>
<path d="M86.9102 4.6582V12H85.7969V4.6582H82.9609V3.74414H89.7461V4.6582H86.9102Z" fill="#9EA3AF"/>
<path d="M92.2539 3.74414V12H91.1348V3.74414H92.2539Z" fill="#9EA3AF"/>
<path d="M100.82 9.7207C100.82 10.4824 100.521 11.0723 99.9238 11.4902C99.3301 11.9082 98.4922 12.1172 97.4102 12.1172C95.3984 12.1172 94.2324 11.418 93.9121 10.0195L94.9961 9.80273C95.1211 10.2988 95.3867 10.6641 95.793 10.8984C96.1992 11.1289 96.752 11.2441 97.4512 11.2441C98.1738 11.2441 98.7305 11.1211 99.1211 10.875C99.5156 10.625 99.7129 10.2598 99.7129 9.7793C99.7129 9.50977 99.6504 9.29102 99.5254 9.12305C99.4043 8.95508 99.2324 8.81641 99.0098 8.70703C98.7871 8.59766 98.5215 8.50586 98.2129 8.43164C97.9043 8.35742 97.5625 8.27734 97.1875 8.19141C96.7539 8.09375 96.3906 7.99805 96.0977 7.9043C95.8086 7.81055 95.5703 7.71289 95.3828 7.61133C95.1953 7.50586 95.0352 7.39453 94.9023 7.27734C94.707 7.09766 94.5566 6.88867 94.4512 6.65039C94.3496 6.41211 94.2988 6.13867 94.2988 5.83008C94.2988 5.12305 94.5684 4.57812 95.1074 4.19531C95.6504 3.8125 96.4258 3.62109 97.4336 3.62109C98.3711 3.62109 99.0879 3.76562 99.584 4.05469C100.08 4.33984 100.428 4.82812 100.627 5.51953L99.5254 5.71289C99.4043 5.27539 99.1738 4.95898 98.834 4.76367C98.4941 4.56445 98.0234 4.46484 97.4219 4.46484C96.7617 4.46484 96.2578 4.57422 95.9102 4.79297C95.5625 5.01172 95.3887 5.33789 95.3887 5.77148C95.3887 6.02539 95.4551 6.23633 95.5879 6.4043C95.7246 6.56836 95.9199 6.70703 96.1738 6.82031C96.4121 6.93359 96.918 7.07617 97.6914 7.24805C98.0078 7.32227 98.3203 7.40039 98.6289 7.48242C98.9375 7.56055 99.2285 7.66016 99.502 7.78125C99.6621 7.84766 99.8145 7.92969 99.959 8.02734C100.107 8.12109 100.236 8.23047 100.346 8.35547C100.494 8.51953 100.609 8.71289 100.691 8.93555C100.777 9.1582 100.82 9.41992 100.82 9.7207Z" fill="#9EA3AF"/>
<path d="M105.59 4.6582V12H104.477V4.6582H101.641V3.74414H108.426V4.6582H105.59Z" fill="#9EA3AF"/>
<path d="M118.1 11.0859V12H112.809V3.74414H113.928V11.0859H118.1Z" fill="#9EA3AF"/>
<path d="M120.637 9.58594L119.688 12H118.527L121.896 3.74414H123.168L126.484 12H125.342L124.398 9.58594H120.637ZM122.518 4.58789C122.451 4.80664 122.371 5.05078 122.277 5.32031C122.188 5.58594 122.104 5.82031 122.025 6.02344L120.977 8.71289H124.064L123.004 5.98828C122.949 5.85156 122.877 5.6582 122.787 5.4082C122.697 5.1582 122.607 4.88477 122.518 4.58789Z" fill="#9EA3AF"/>
<path d="M133.879 9.67383C133.879 10.4082 133.611 10.9805 133.076 11.3906C132.541 11.7969 131.797 12 130.844 12H127.492V3.74414H130.492C131.461 3.74414 132.188 3.91211 132.672 4.24805C133.156 4.58008 133.398 5.08008 133.398 5.74805C133.398 6.23633 133.262 6.64648 132.988 6.97852C132.715 7.31055 132.328 7.5332 131.828 7.64648C132.484 7.72461 132.99 7.94531 133.346 8.30859C133.701 8.66797 133.879 9.12305 133.879 9.67383ZM132.273 5.88281C132.273 5.4375 132.121 5.11914 131.816 4.92773C131.512 4.73633 131.07 4.64062 130.492 4.64062H128.611V7.25391H130.492C131.09 7.25391 131.535 7.14258 131.828 6.91992C132.125 6.69336 132.273 6.34766 132.273 5.88281ZM132.748 9.58594C132.748 8.61328 132.064 8.12695 130.697 8.12695H128.611V11.1035H130.785C131.469 11.1035 131.967 10.9766 132.279 10.7227C132.592 10.4688 132.748 10.0898 132.748 9.58594Z" fill="#9EA3AF"/>
<path d="M143.271 7.83398C143.271 8.7168 143.104 9.47852 142.768 10.1191C142.436 10.7598 141.963 11.2539 141.35 11.6016C140.736 11.9453 140.01 12.1172 139.17 12.1172C138.326 12.1172 137.598 11.9453 136.984 11.6016C136.375 11.2578 135.904 10.7656 135.572 10.125C135.244 9.48438 135.08 8.7207 135.08 7.83398C135.08 6.95117 135.242 6.19727 135.566 5.57227C135.895 4.94336 136.363 4.46094 136.973 4.125C137.586 3.78906 138.322 3.62109 139.182 3.62109C140.025 3.62109 140.752 3.78711 141.361 4.11914C141.975 4.45117 142.445 4.93164 142.773 5.56055C143.105 6.18555 143.271 6.94336 143.271 7.83398ZM142.129 7.83398C142.129 6.80664 141.871 6 141.355 5.41406C140.844 4.82812 140.119 4.53516 139.182 4.53516C138.236 4.53516 137.506 4.82422 136.99 5.40234C136.475 5.98047 136.217 6.79102 136.217 7.83398C136.217 8.52148 136.334 9.11914 136.568 9.62695C136.803 10.1309 137.141 10.5215 137.582 10.7988C138.023 11.0723 138.553 11.209 139.17 11.209C140.123 11.209 140.854 10.916 141.361 10.3301C141.873 9.74023 142.129 8.9082 142.129 7.83398Z" fill="#9EA3AF"/>
<path d="M145.955 8.57227V12H144.836V3.74414H148.721C149.65 3.74414 150.367 3.95312 150.871 4.37109C151.379 4.78516 151.633 5.36328 151.633 6.10547C151.633 6.71875 151.453 7.23438 151.094 7.65234C150.738 8.07031 150.246 8.33398 149.617 8.44336L151.961 12H150.672L148.527 8.57227H145.955ZM150.508 6.11719C150.508 5.63672 150.344 5.27148 150.016 5.02148C149.691 4.76758 149.223 4.64062 148.609 4.64062H145.955V7.6875H148.656C149.246 7.6875 149.701 7.55078 150.021 7.27734C150.346 7 150.508 6.61328 150.508 6.11719Z" fill="#9EA3AF"/>
<path d="M154.656 9.58594L153.707 12H152.547L155.916 3.74414H157.188L160.504 12H159.361L158.418 9.58594H154.656ZM156.537 4.58789C156.471 4.80664 156.391 5.05078 156.297 5.32031C156.207 5.58594 156.123 5.82031 156.045 6.02344L154.996 8.71289H158.084L157.023 5.98828C156.969 5.85156 156.896 5.6582 156.807 5.4082C156.717 5.1582 156.627 4.88477 156.537 4.58789Z" fill="#9EA3AF"/>
<path d="M163.855 4.6582V12H162.742V4.6582H159.906V3.74414H166.691V4.6582H163.855Z" fill="#9EA3AF"/>
<path d="M175.51 7.83398C175.51 8.7168 175.342 9.47852 175.006 10.1191C174.674 10.7598 174.201 11.2539 173.588 11.6016C172.975 11.9453 172.248 12.1172 171.408 12.1172C170.564 12.1172 169.836 11.9453 169.223 11.6016C168.613 11.2578 168.143 10.7656 167.811 10.125C167.482 9.48438 167.318 8.7207 167.318 7.83398C167.318 6.95117 167.48 6.19727 167.805 5.57227C168.133 4.94336 168.602 4.46094 169.211 4.125C169.824 3.78906 170.561 3.62109 171.42 3.62109C172.264 3.62109 172.99 3.78711 173.6 4.11914C174.213 4.45117 174.684 4.93164 175.012 5.56055C175.344 6.18555 175.51 6.94336 175.51 7.83398ZM174.367 7.83398C174.367 6.80664 174.109 6 173.594 5.41406C173.082 4.82812 172.357 4.53516 171.42 4.53516C170.475 4.53516 169.744 4.82422 169.229 5.40234C168.713 5.98047 168.455 6.79102 168.455 7.83398C168.455 8.52148 168.572 9.11914 168.807 9.62695C169.041 10.1309 169.379 10.5215 169.82 10.7988C170.262 11.0723 170.791 11.209 171.408 11.209C172.361 11.209 173.092 10.916 173.6 10.3301C174.111 9.74023 174.367 8.9082 174.367 7.83398Z" fill="#9EA3AF"/>
<path d="M178.193 8.57227V12H177.074V3.74414H180.959C181.889 3.74414 182.605 3.95312 183.109 4.37109C183.617 4.78516 183.871 5.36328 183.871 6.10547C183.871 6.71875 183.691 7.23438 183.332 7.65234C182.977 8.07031 182.484 8.33398 181.855 8.44336L184.199 12H182.91L180.766 8.57227H178.193ZM182.746 6.11719C182.746 5.63672 182.582 5.27148 182.254 5.02148C181.93 4.76758 181.461 4.64062 180.848 4.64062H178.193V7.6875H180.895C181.484 7.6875 181.939 7.55078 182.26 7.27734C182.584 7 182.746 6.61328 182.746 6.11719Z" fill="#9EA3AF"/>
<path d="M189.092 8.57812V12H187.979V8.57812L184.803 3.74414H186.033L188.547 7.67578L191.049 3.74414H192.279L189.092 8.57812Z" fill="#9EA3AF"/>
<path d="M49.6797 30.1875L48.7031 33H46.3984L50.4141 21.9922H53.1328L57.1328 33H54.8516L53.875 30.1875H49.6797ZM51.7734 23.6875C51.7214 23.8958 51.6484 24.1458 51.5547 24.4375C51.4609 24.7292 51.3932 24.9349 51.3516 25.0547L50.1953 28.4531H53.3594L52.1719 24.9844C52.099 24.7708 52.0312 24.5547 51.9688 24.3359C51.9062 24.1172 51.8411 23.901 51.7734 23.6875Z" fill="white"/>
<path d="M67.6094 29.8281C67.6094 30.9062 67.2083 31.7318 66.4062 32.3047C65.6094 32.8724 64.4375 33.1562 62.8906 33.1562C60.1042 33.1562 58.4818 32.1484 58.0234 30.1328L60.25 29.7656C60.401 30.349 60.6953 30.7734 61.1328 31.0391C61.5703 31.2995 62.1771 31.4297 62.9531 31.4297C63.7604 31.4297 64.3646 31.3073 64.7656 31.0625C65.1667 30.8177 65.3672 30.4505 65.3672 29.9609C65.3672 29.6484 65.276 29.3906 65.0938 29.1875C64.9115 28.9844 64.651 28.8151 64.3125 28.6797C64.1458 28.612 63.901 28.5391 63.5781 28.4609C63.2552 28.3776 62.8542 28.2865 62.375 28.1875C61.8229 28.0573 61.3906 27.9479 61.0781 27.8594C60.7656 27.7656 60.5156 27.6771 60.3281 27.5938C60.1406 27.5052 59.9583 27.4089 59.7812 27.3047C59.3906 27.0703 59.0859 26.7578 58.8672 26.3672C58.6484 25.9766 58.5391 25.4896 58.5391 24.9062C58.5391 23.9115 58.9115 23.151 59.6562 22.625C60.4062 22.0938 61.4948 21.8281 62.9219 21.8281C64.2865 21.8281 65.3099 22.0417 65.9922 22.4688C66.6797 22.8958 67.1224 23.6016 67.3203 24.5859L65.0859 24.8906C64.9714 24.4167 64.737 24.0599 64.3828 23.8203C64.0339 23.5807 63.5312 23.4609 62.875 23.4609C62.1771 23.4609 61.6536 23.5703 61.3047 23.7891C60.9557 24.0078 60.7812 24.3359 60.7812 24.7734C60.7812 25.0599 60.8542 25.2943 61 25.4766C61.151 25.6589 61.3724 25.8151 61.6641 25.9453C61.9401 26.0703 62.5312 26.2292 63.4375 26.4219C63.9635 26.5365 64.4167 26.6458 64.7969 26.75C65.1771 26.849 65.4818 26.9453 65.7109 27.0391C65.9401 27.138 66.1432 27.2422 66.3203 27.3516C66.5026 27.4609 66.6589 27.5781 66.7891 27.7031C67.0547 27.9583 67.2578 28.263 67.3984 28.6172C67.5391 28.9661 67.6094 29.3698 67.6094 29.8281Z" fill="white"/>
<path d="M74.2734 23.7734V33H71.9688V23.7734H68.4141V21.9922H77.8359V23.7734H74.2734Z" fill="white"/>
<path d="M88.0625 31.2188V33H79.0859V21.9922H87.7422V23.7734H81.3906V26.5391H87.2656V28.3203H81.3906V31.2188H88.0625Z" fill="white"/>
<path d="M92.0625 28.8203V33H89.7578V21.9922H95.2578C96.5703 21.9922 97.5833 22.276 98.2969 22.8438C99.0104 23.4062 99.3672 24.2161 99.3672 25.2734C99.3672 26.0443 99.1484 26.7109 98.7109 27.2734C98.2734 27.8307 97.6823 28.1979 96.9375 28.375L99.9141 33H97.3203L94.7656 28.8203H92.0625ZM97.0469 25.3672C97.0469 24.8411 96.8776 24.4453 96.5391 24.1797C96.2005 23.9141 95.6927 23.7812 95.0156 23.7812H92.0625V27.0312H95.0781C95.724 27.0312 96.2135 26.8854 96.5469 26.5938C96.8802 26.3021 97.0469 25.8932 97.0469 25.3672Z" fill="white"/>
<path d="M112.023 27.4453C112.023 28.5911 111.792 29.5938 111.328 30.4531C110.87 31.3073 110.221 31.9714 109.383 32.4453C108.549 32.9193 107.57 33.1562 106.445 33.1562C105.294 33.1562 104.305 32.9271 103.477 32.4688C102.648 32.0052 102.013 31.3464 101.57 30.4922C101.128 29.638 100.906 28.6224 100.906 27.4453C100.906 26.2682 101.125 25.2604 101.562 24.4219C102.005 23.5833 102.641 22.9427 103.469 22.5C104.302 22.0521 105.299 21.8281 106.461 21.8281C107.628 21.8281 108.625 22.0547 109.453 22.5078C110.281 22.9557 110.917 23.599 111.359 24.4375C111.802 25.276 112.023 26.2786 112.023 27.4453ZM109.672 27.4453C109.672 26.2578 109.391 25.3281 108.828 24.6562C108.266 23.9792 107.477 23.6406 106.461 23.6406C105.43 23.6406 104.633 23.9766 104.07 24.6484C103.508 25.3151 103.227 26.2474 103.227 27.4453C103.227 28.2474 103.357 28.9401 103.617 29.5234C103.878 30.1068 104.247 30.5573 104.727 30.875C105.211 31.1875 105.784 31.3438 106.445 31.3438C107.477 31.3438 108.271 31.0052 108.828 30.3281C109.391 29.651 109.672 28.6901 109.672 27.4453Z" fill="white"/>
<path d="M116.078 21.9922V33H113.773V21.9922H116.078Z" fill="white"/>
<path d="M128.039 27.4141C128.039 28.5911 127.81 29.5964 127.352 30.4297C126.898 31.263 126.268 31.901 125.461 32.3438C124.659 32.7812 123.732 33 122.68 33H118.227V21.9922H122.211C124.065 21.9922 125.5 22.4609 126.516 23.3984C127.531 24.3307 128.039 25.6693 128.039 27.4141ZM125.719 27.4141C125.719 26.2318 125.411 25.3307 124.797 24.7109C124.182 24.0859 123.305 23.7734 122.164 23.7734H120.531V31.2188H122.484C123.146 31.2188 123.716 31.0651 124.195 30.7578C124.68 30.4453 125.055 30.0052 125.32 29.4375C125.586 28.8698 125.719 28.1953 125.719 27.4141Z" fill="white"/>
<path d="M138.766 29.8281C138.766 30.9062 138.365 31.7318 137.562 32.3047C136.766 32.8724 135.594 33.1562 134.047 33.1562C131.26 33.1562 129.638 32.1484 129.18 30.1328L131.406 29.7656C131.557 30.349 131.852 30.7734 132.289 31.0391C132.727 31.2995 133.333 31.4297 134.109 31.4297C134.917 31.4297 135.521 31.3073 135.922 31.0625C136.323 30.8177 136.523 30.4505 136.523 29.9609C136.523 29.6484 136.432 29.3906 136.25 29.1875C136.068 28.9844 135.807 28.8151 135.469 28.6797C135.302 28.612 135.057 28.5391 134.734 28.4609C134.411 28.3776 134.01 28.2865 133.531 28.1875C132.979 28.0573 132.547 27.9479 132.234 27.8594C131.922 27.7656 131.672 27.6771 131.484 27.5938C131.297 27.5052 131.115 27.4089 130.938 27.3047C130.547 27.0703 130.242 26.7578 130.023 26.3672C129.805 25.9766 129.695 25.4896 129.695 24.9062C129.695 23.9115 130.068 23.151 130.812 22.625C131.562 22.0938 132.651 21.8281 134.078 21.8281C135.443 21.8281 136.466 22.0417 137.148 22.4688C137.836 22.8958 138.279 23.6016 138.477 24.5859L136.242 24.8906C136.128 24.4167 135.893 24.0599 135.539 23.8203C135.19 23.5807 134.688 23.4609 134.031 23.4609C133.333 23.4609 132.81 23.5703 132.461 23.7891C132.112 24.0078 131.938 24.3359 131.938 24.7734C131.938 25.0599 132.01 25.2943 132.156 25.4766C132.307 25.6589 132.529 25.8151 132.82 25.9453C133.096 26.0703 133.688 26.2292 134.594 26.4219C135.12 26.5365 135.573 26.6458 135.953 26.75C136.333 26.849 136.638 26.9453 136.867 27.0391C137.096 27.138 137.299 27.2422 137.477 27.3516C137.659 27.4609 137.815 27.5781 137.945 27.7031C138.211 27.9583 138.414 28.263 138.555 28.6172C138.695 28.9661 138.766 29.3698 138.766 29.8281Z" fill="white"/>
<path d="M146.93 30.1875L145.953 33H143.648L147.664 21.9922H150.383L154.383 33H152.102L151.125 30.1875H146.93ZM149.023 23.6875C148.971 23.8958 148.898 24.1458 148.805 24.4375C148.711 24.7292 148.643 24.9349 148.602 25.0547L147.445 28.4531H150.609L149.422 24.9844C149.349 24.7708 149.281 24.5547 149.219 24.3359C149.156 24.1172 149.091 23.901 149.023 23.6875Z" fill="white"/>
<path d="M164.938 25.4766C164.938 26.1901 164.773 26.8229 164.445 27.375C164.122 27.9219 163.661 28.3516 163.062 28.6641C162.464 28.9714 161.75 29.125 160.922 29.125H158.188V33H155.883V21.9922H160.828C162.146 21.9922 163.159 22.2969 163.867 22.9062C164.581 23.5104 164.938 24.3672 164.938 25.4766ZM162.617 25.5156C162.617 24.3594 161.935 23.7812 160.57 23.7812H158.188V27.3516H160.633C161.268 27.3516 161.758 27.1953 162.102 26.8828C162.445 26.5651 162.617 26.1094 162.617 25.5156Z" fill="white"/>
<path d="M175.609 25.4766C175.609 26.1901 175.445 26.8229 175.117 27.375C174.794 27.9219 174.333 28.3516 173.734 28.6641C173.135 28.9714 172.422 29.125 171.594 29.125H168.859V33H166.555V21.9922H171.5C172.818 21.9922 173.831 22.2969 174.539 22.9062C175.253 23.5104 175.609 24.3672 175.609 25.4766ZM173.289 25.5156C173.289 24.3594 172.607 23.7812 171.242 23.7812H168.859V27.3516H171.305C171.94 27.3516 172.43 27.1953 172.773 26.8828C173.117 26.5651 173.289 26.1094 173.289 25.5156Z" fill="white"/>
</svg>
