<svg width="29" height="16" viewBox="0 0 29 16" fill="none" xmlns="http://www.w3.org/2000/svg">
<path d="M28.3321 8.95711C28.7226 8.56658 28.7226 7.93342 28.3321 7.5429L21.9681 1.17893C21.5776 0.78841 20.9445 0.78841 20.5539 1.17893C20.1634 1.56946 20.1634 2.20262 20.5539 2.59315L26.2108 8.25L20.5539 13.9069C20.1634 14.2974 20.1634 14.9305 20.5539 15.3211C20.9445 15.7116 21.5776 15.7116 21.9681 15.3211L28.3321 8.95711ZM1.48438 7.25L0.484375 7.25L0.484375 9.25L1.48437 9.25L1.48438 7.25ZM27.625 7.25L1.48438 7.25L1.48437 9.25L27.625 9.25L27.625 7.25Z" fill="white"/>
</svg>
