<svg width="55" height="46" viewBox="0 0 55 46" fill="none" xmlns="http://www.w3.org/2000/svg">
<path d="M6.34619 39.1349L16.7329 17.9808L35.9619 34.904L48.6543 5.28833" stroke="white" stroke-width="3" stroke-miterlimit="10"/>
<path d="M16.9234 23.2694C20.4283 23.2694 23.2696 20.4281 23.2696 16.9231C23.2696 13.4182 20.4283 10.5769 16.9234 10.5769C13.4184 10.5769 10.5771 13.4182 10.5771 16.9231C10.5771 20.4281 13.4184 23.2694 16.9234 23.2694Z" fill="white"/>
<path d="M6.34622 45.481C9.85115 45.481 12.6924 42.6397 12.6924 39.1348C12.6924 35.6299 9.85115 32.7886 6.34622 32.7886C2.8413 32.7886 0 35.6299 0 39.1348C0 42.6397 2.8413 45.481 6.34622 45.481Z" fill="white"/>
<path d="M48.6538 12.6922C52.1588 12.6922 55.0001 9.8509 55.0001 6.34598C55.0001 2.84106 52.1588 -0.000244141 48.6538 -0.000244141C45.1489 -0.000244141 42.3076 2.84106 42.3076 6.34598C42.3076 9.8509 45.1489 12.6922 48.6538 12.6922Z" fill="white"/>
<path d="M35.9615 41.2503C39.4664 41.2503 42.3077 38.409 42.3077 34.9041C42.3077 31.3992 39.4664 28.5579 35.9615 28.5579C32.4565 28.5579 29.6152 31.3992 29.6152 34.9041C29.6152 38.409 32.4565 41.2503 35.9615 41.2503Z" fill="white"/>
</svg>
