<svg width="60" height="60" viewBox="0 0 60 60" fill="none" xmlns="http://www.w3.org/2000/svg">
<path d="M30 58C45.464 58 58 45.464 58 30C58 14.536 45.464 2 30 2C14.536 2 2 14.536 2 30C2 45.464 14.536 58 30 58Z" stroke="black" stroke-width="4" stroke-miterlimit="10"/>
<path d="M29.7301 1.44995C25.7915 8.64716 22.5341 16.1966 20.0001 24C17.1707 32.7954 15.1621 41.834 14.0001 51C20.4801 49.38 31.4701 44.27 42.0001 36C47.7804 31.4557 52.8379 26.061 57.0001 20C39.6489 17.3306 21.9914 17.3306 4.64014 20C9.56708 26.4826 15.4156 32.2099 22.0001 37C31.5901 44 41.6501 49.1 48.0001 51C47.6801 44.67 45.7101 34.14 42.0001 24C39.0433 15.9199 34.9087 8.32113 29.7301 1.44995V1.44995Z" stroke="black" stroke-width="4" stroke-linejoin="bevel"/>
</svg>
