<svg width="34" height="35" viewBox="0 0 34 35" fill="none" xmlns="http://www.w3.org/2000/svg">
<path d="M34 17.5C34 12.8587 32.2089 8.40752 29.0208 5.12563C25.8327 1.84374 21.5087 0 17 0C12.4913 0 8.16731 1.84374 4.97919 5.12563C1.79107 8.40752 7.14348e-06 12.8587 7.14348e-06 17.5C-0.0015513 19.25 0.251896 20.9904 0.751892 22.663L13.7593 11.04L14.2198 9.951L12.988 7.031L15.8246 8.299L18.6611 7.031L17.4294 9.951L18.6611 12.871L15.8246 11.603L14.7638 12.077L2.49366 26.628C2.82266 27.1814 3.18135 27.7156 3.56806 28.228L22.0981 11.109L22.3895 10.416L21.1606 7.496L23.9982 8.764L25.2406 8.209L25.3426 8.115L25.3747 8.149L26.8318 7.496L26.1975 8.996L26.2305 9.03L26.1392 9.13L25.6001 10.409L26.8318 13.329L23.9953 12.061L23.3221 12.361L6.71064 31.42C7.169 31.7798 7.64498 32.1153 8.13669 32.425L22.27 19.801L22.7305 18.71L21.4987 15.79L24.3353 17.058L27.1718 15.79L25.9401 18.71L27.1718 21.63L24.3353 20.362L23.2754 20.836L11.9845 34.226C13.6094 34.7407 15.3 35.0016 17 35C21.5087 35 25.8327 33.1562 29.0208 29.8744C32.2089 26.5925 34 22.1413 34 17.5Z" fill="#00A3FF"/>
</svg>
